<svg width="539" height="80" viewBox="0 0 539 80" fill="none" xmlns="http://www.w3.org/2000/svg">
<path d="M30.3004 74.5C27.5671 74.5 24.1671 72.8667 20.1004 69.6C17.2337 69.1333 14.7671 68.5 12.7004 67.7C10.7004 66.9667 9.03372 66.0667 7.70039 65C5.83372 63.4 4.20039 61.2667 2.80039 58.6C1.40039 55.9333 0.700391 53.3667 0.700391 50.9C0.700391 49.0333 1.13372 47.3667 2.00039 45.9C4.00039 42.3667 6.53372 40.6 9.60039 40.6C11.9337 40.6 13.3004 42.5667 13.7004 46.5C14.1671 50.1667 14.5337 53.1 14.8004 55.3C15.1337 57.4333 15.4004 58.8333 15.6004 59.5C16.6004 62.7667 18.3004 65.5333 20.7004 67.8C23.5004 68.4 26.5337 68.7 29.8004 68.7C37.0004 68.7 43.9004 67.3333 50.5004 64.6C53.3004 63.4 56.0337 61.8333 58.7004 59.9C61.3671 57.9667 63.5671 55.8333 65.3004 53.5C67.0337 51.1667 67.9004 48.9 67.9004 46.7C67.9004 43.5667 65.1337 41.1333 59.6004 39.4L42.0004 35.4C38.4004 34.6 35.5004 33.2 33.3004 31.2C31.1671 29.1333 30.1004 26.8 30.1004 24.2C30.1004 20.2 32.6004 16.2 37.6004 12.2C40.1337 10.1333 43.1004 8.4 46.5004 7C49.9004 5.53333 53.4671 4.43333 57.2004 3.7C61.0004 2.9 64.6337 2.5 68.1004 2.5C73.0337 2.5 77.2337 3.26666 80.7004 4.79999C84.2337 6.33333 86.4337 8.56666 87.3004 11.5C87.5004 12.1667 87.6004 12.9 87.6004 13.7C87.6004 17.7667 85.5671 20.6 81.5004 22.2C79.0337 23.2 76.9337 23.7 75.2004 23.7C74.1337 23.7 73.3004 23.5 72.7004 23.1C72.5671 22.9667 72.5004 22.8 72.5004 22.6C72.5004 22.1333 73.4337 21.8667 75.3004 21.8C76.4337 21.7333 77.3671 21.6333 78.1004 21.5C78.8337 21.3667 79.3671 21.2333 79.7004 21.1C82.2337 19.7667 83.5004 17.8 83.5004 15.2C83.5004 13.8667 83.1337 12.4667 82.4004 11C80.3337 7.2 75.1671 5.3 66.9004 5.3C63.9004 5.3 60.8004 5.63333 57.6004 6.3C54.4004 6.9 51.3671 7.83333 48.5004 9.1C45.6337 10.3 43.2004 11.8333 41.2004 13.7C37.7337 16.9 36.0004 19.7667 36.0004 22.3C36.0004 24.2333 36.9337 25.9667 38.8004 27.5C40.7337 28.9667 43.6337 30.0667 47.5004 30.8L59.3004 33C63.8337 33.8667 67.5004 35.1667 70.3004 36.9C73.1004 38.5667 74.5004 41.1333 74.5004 44.6C74.5004 47.6667 73.7337 50.5333 72.2004 53.2C70.6671 55.8667 68.6004 58.2667 66.0004 60.4C63.4671 62.4667 60.5671 64.2 57.3004 65.6C49.9004 68.8667 41.1671 70.5 31.1004 70.5C29.8337 70.5 28.5671 70.4667 27.3004 70.4C26.0337 70.3333 24.8004 70.2333 23.6004 70.1C24.5337 70.6333 25.7004 71.1667 27.1004 71.7C28.5671 72.2333 30.2337 72.7333 32.1004 73.2C32.3004 73.2667 32.4004 73.4 32.4004 73.6C32.4004 74.2 31.7004 74.5 30.3004 74.5ZM17.1004 66.8C15.3004 64.8 13.9004 62.7333 12.9004 60.6C11.4337 57.2667 10.3337 53.1667 9.60039 48.3C9.06706 44.7667 8.50039 43 7.90039 43C7.36706 43 6.63372 43.4 5.70039 44.2C4.83372 45 4.40039 46.7 4.40039 49.3C4.40039 54.3667 6.20039 58.7667 9.80039 62.5C11.6004 64.3667 14.0337 65.8 17.1004 66.8Z" fill="#CE8330"/>
<path d="M82.3051 66.3C80.1717 66.3 78.2384 65.6333 76.5051 64.3C74.7717 62.9 73.9051 61.0667 73.9051 58.8C73.9051 54.0667 76.8051 48.6667 82.6051 42.6C88.5384 36.4667 93.8384 33.4 98.5051 33.4C100.038 33.4 101.272 33.8333 102.205 34.7C103.205 35.5 103.705 36.5 103.705 37.7C103.705 41.4333 100.738 45.1 94.8051 48.7C89.5384 51.9 85.1051 53.5 81.5051 53.5C80.9717 53.5 80.5051 53.4333 80.1051 53.3C79.1051 55.1 78.6051 57 78.6051 59C78.6051 62.4667 80.2384 64.2 83.5051 64.2C86.8384 64.2 91.1384 61.9667 96.4051 57.5C100.472 54.2333 103.938 50.7667 106.805 47.1C107.405 46.3 107.938 45.9 108.405 45.9C108.805 45.9 109.005 46.1 109.005 46.5C109.005 46.9 108.738 47.4667 108.205 48.2C106.338 50.6667 104.338 52.9333 102.205 55C100.072 57.0667 97.7717 58.9667 95.3051 60.7C90.1717 64.4333 85.8384 66.3 82.3051 66.3ZM82.9051 51.3C85.4384 51.3 88.7384 50.0333 92.8051 47.5C94.1384 46.5667 95.4384 45.5333 96.7051 44.4C98.0384 43.2 99.1051 42 99.9051 40.8C100.772 39.6 101.205 38.5333 101.205 37.6C101.205 36.7333 100.505 36.3 99.1051 36.3C97.1051 36.3 94.3051 37.8 90.7051 40.8C88.9717 42.2667 87.3051 43.8667 85.7051 45.6C84.1051 47.3333 82.7384 49.1667 81.6051 51.1C82.0051 51.2333 82.4384 51.3 82.9051 51.3ZM123.389 66.2C121.189 66.2 119.222 65.5667 117.489 64.3C115.822 63.0333 114.355 61.4333 113.089 59.5C111.889 57.5667 110.855 55.6333 109.989 53.7C109.522 54.3 109.022 55.0667 108.489 56C108.022 56.9333 107.455 58.0333 106.789 59.3L103.689 65.5C101.289 64.5667 100.089 63.3 100.089 61.7C100.089 58.8333 104.455 50.8667 113.189 37.8C121.655 25.1333 127.489 17.6667 130.689 15.4C131.022 15.2 131.555 15.1 132.289 15.1C134.355 15.1 135.389 15.6333 135.389 16.7C135.389 16.9 134.922 17.6333 133.989 18.9C133.055 20.1 131.889 21.5667 130.489 23.3C129.089 25.0333 127.655 26.8 126.189 28.6C124.789 30.3333 123.555 31.8667 122.489 33.2C121.422 34.4667 120.822 35.2667 120.689 35.6C126.755 32.4667 131.589 30.9 135.189 30.9C136.589 30.9 137.855 31.3 138.989 32.1C140.189 32.9 141.122 33.8667 141.789 35C142.455 36.1333 142.722 37.2333 142.589 38.3C142.055 42.1 139.389 45.2333 134.589 47.7C130.722 49.7667 127.189 50.8 123.989 50.8C120.522 50.8 118.122 50.3667 116.789 49.5C116.389 49.4333 116.055 49.5333 115.789 49.8C115.589 50 115.555 50.3333 115.689 50.8C117.555 59.0667 120.655 63.2 124.989 63.2C127.122 63.2 129.955 61.9667 133.489 59.5C137.089 57.0333 140.889 53.4333 144.889 48.7C145.355 48.2333 145.789 48 146.189 48C146.522 48 146.689 48.2 146.689 48.6C146.689 48.9333 146.455 49.4333 145.989 50.1C144.055 52.4333 141.789 54.8667 139.189 57.4C136.655 59.8667 134.022 61.9667 131.289 63.7C128.555 65.3667 125.922 66.2 123.389 66.2ZM117.589 48.2C120.589 48.2 124.522 46.9667 129.389 44.5C134.989 41.7 137.789 38.7333 137.789 35.6C137.789 35.0667 137.489 34.5333 136.889 34C136.289 33.4667 135.655 33.2 134.989 33.2C131.389 33.2 127.189 34.6 122.389 37.4C117.122 40.6 113.922 44.1 112.789 47.9C113.522 47.9 114.455 47.9667 115.589 48.1C116.789 48.1667 117.455 48.2 117.589 48.2ZM162.644 65.5C159.777 65.5 157.811 64.7667 156.744 63.3C155.677 61.7667 155.144 59.7333 155.144 57.2C155.144 54.4 156.011 51.0667 157.744 47.2C158.411 45.6667 159.111 44.3 159.844 43.1C160.577 41.8333 161.344 40.6667 162.144 39.6C161.877 39.6667 161.644 39.7 161.444 39.7C161.244 39.7 161.044 39.7 160.844 39.7C159.244 39.7 157.911 38.5667 156.844 36.3L149.444 45.9C145.511 51.0333 143.111 53.6 142.244 53.6C141.911 53.6 141.744 53.4667 141.744 53.2C141.744 52.8667 141.911 52.4333 142.244 51.9C142.444 51.5 142.844 50.9667 143.444 50.3C145.977 47.3667 148.311 44.4667 150.444 41.6C152.577 38.7333 154.344 35.9333 155.744 33.2C157.277 27.4 159.211 24.5 161.544 24.5C163.077 24.5 163.844 25.2 163.844 26.6C163.844 27.8667 163.011 29.5333 161.344 31.6C159.744 33.6667 158.944 34.7333 158.944 34.8C158.944 36.2 159.977 36.9 162.044 36.9C163.244 36.9 164.577 36.4667 166.044 35.6L168.644 34C168.777 33.9333 168.977 33.9 169.244 33.9C170.044 33.9 170.744 34.2333 171.344 34.9C171.944 35.5667 172.144 36.1667 171.944 36.7L165.044 45.4C160.777 50.8667 158.644 55.2667 158.644 58.6C158.644 61.6 160.111 63.1 163.044 63.1C165.044 63.1 167.177 62.5 169.444 61.3C171.777 60.1 174.011 58.6333 176.144 56.9C178.344 55.1 180.177 53.3667 181.644 51.7L184.044 48.9C184.177 48.7667 184.344 48.6 184.544 48.4C184.744 48.2 184.911 48.1 185.044 48.1C185.511 48.1 185.744 48.3333 185.744 48.8C185.744 48.9333 185.677 49.1667 185.544 49.5C185.411 49.8333 185.177 50.2 184.844 50.6L181.644 54.2C180.111 55.9333 178.211 57.7 175.944 59.5C173.744 61.2333 171.444 62.6667 169.044 63.8C166.711 64.9333 164.577 65.5 162.644 65.5ZM186.7 66.3C184.566 66.3 182.633 65.6333 180.9 64.3C179.166 62.9 178.3 61.0667 178.3 58.8C178.3 54.0667 181.2 48.6667 187 42.6C192.933 36.4667 198.233 33.4 202.9 33.4C204.433 33.4 205.666 33.8333 206.6 34.7C207.6 35.5 208.1 36.5 208.1 37.7C208.1 41.4333 205.133 45.1 199.2 48.7C193.933 51.9 189.5 53.5 185.9 53.5C185.366 53.5 184.9 53.4333 184.5 53.3C183.5 55.1 183 57 183 59C183 62.4667 184.633 64.2 187.9 64.2C191.233 64.2 195.533 61.9667 200.8 57.5C204.866 54.2333 208.333 50.7667 211.2 47.1C211.8 46.3 212.333 45.9 212.8 45.9C213.2 45.9 213.4 46.1 213.4 46.5C213.4 46.9 213.133 47.4667 212.6 48.2C210.733 50.6667 208.733 52.9333 206.6 55C204.466 57.0667 202.166 58.9667 199.7 60.7C194.566 64.4333 190.233 66.3 186.7 66.3ZM187.3 51.3C189.833 51.3 193.133 50.0333 197.2 47.5C198.533 46.5667 199.833 45.5333 201.1 44.4C202.433 43.2 203.5 42 204.3 40.8C205.166 39.6 205.6 38.5333 205.6 37.6C205.6 36.7333 204.9 36.3 203.5 36.3C201.5 36.3 198.7 37.8 195.1 40.8C193.366 42.2667 191.7 43.8667 190.1 45.6C188.5 47.3333 187.133 49.1667 186 51.1C186.4 51.2333 186.833 51.3 187.3 51.3ZM213.483 65.6C211.35 65.6 209.65 65.1 208.383 64.1C207.183 63.0333 206.583 61.1667 206.583 58.5C206.583 56.9667 207.05 55.0333 207.983 52.7C208.917 50.3 210.083 47.7333 211.483 45C212.883 42.2667 214.283 39.5667 215.683 36.9C214.817 37.1 214.05 37.2 213.383 37.2C211.383 37.2 210.383 36.4333 210.383 34.9C210.383 34.1667 210.65 33.6 211.183 33.2C211.783 32.8 212.317 32.5667 212.783 32.5C212.783 32.5 212.85 32.5 212.983 32.5C213.183 32.5 213.417 32.4667 213.683 32.4H219.483C220.683 30.8667 221.917 29.2333 223.183 27.5C224.983 25.2333 226.417 23.9 227.483 23.5H227.783C228.25 23.5 228.917 23.7333 229.783 24.2C230.85 24.8 231.383 25.4 231.383 26C231.383 26.8667 229.783 29.1 226.583 32.7C227.183 32.7667 228.05 32.8 229.183 32.8C230.317 32.8 231.717 32.8 233.383 32.8C234.183 32.8 235.317 32.8 236.783 32.8C238.317 32.8 239.883 32.8 241.483 32.8C243.15 32.7333 244.583 32.7 245.783 32.7C246.983 32.6333 247.65 32.6 247.783 32.6C247.983 32.6667 248.083 32.7667 248.083 32.9C248.083 33.5 244.15 34.3 236.283 35.3C231.817 35.9 228.383 36.3667 225.983 36.7C223.65 37.0333 222.383 37.2333 222.183 37.3C221.25 38.1 220.117 39.4667 218.783 41.4C217.45 43.3333 216.117 45.5 214.783 47.9C213.45 50.3 212.317 52.6 211.383 54.8C210.517 56.9333 210.083 58.6 210.083 59.8C210.083 60.8667 210.483 61.7667 211.283 62.5C212.083 63.1667 213.383 63.5 215.183 63.5C216.383 63.5 217.817 63.2333 219.483 62.7C221.15 62.1667 222.717 61.5667 224.183 60.9C225.717 60.1667 226.817 59.6 227.483 59.2C229.217 58.1333 231.117 56.7333 233.183 55C235.317 53.2 237.417 51.1667 239.483 48.9C240.417 47.9667 241.05 47.5 241.383 47.5C241.583 47.5 241.683 47.6333 241.683 47.9C241.683 48.4333 241.183 49.3 240.183 50.5C238.583 52.4333 236.783 54.3 234.783 56.1C232.85 57.8333 230.683 59.4333 228.283 60.9C225.55 62.5667 222.917 63.7667 220.383 64.5C217.917 65.2333 215.617 65.6 213.483 65.6ZM384.559 30.6C383.426 30.6 382.426 30.2333 381.559 29.5C380.759 28.7667 380.359 27.9333 380.359 27C380.359 25.1333 381.626 24.2 384.159 24.2C385.092 24.2 386.026 24.5333 386.959 25.2C387.892 25.8 388.359 26.5667 388.359 27.5C388.359 28.3 387.926 29.0333 387.059 29.7C386.192 30.3 385.359 30.6 384.559 30.6ZM366.059 66.1C364.592 66.1 363.392 65.6333 362.459 64.7C361.459 63.7 360.959 61.9667 360.959 59.5C360.959 58.1 361.292 56.5 361.959 54.7C362.559 52.8333 363.326 50.9667 364.259 49.1C365.259 47.2333 366.226 45.5667 367.159 44.1C370.892 38.0333 373.959 34.9667 376.359 34.9C376.959 34.9 377.692 35.1667 378.559 35.7C379.426 36.1667 379.859 36.7 379.859 37.3C379.859 37.3 377.326 40.5667 372.259 47.1C367.259 53.5667 364.759 58.1667 364.759 60.9C364.759 63.0333 365.592 64.1 367.259 64.1C368.326 64.1 369.692 63.6667 371.359 62.8C373.092 61.8667 374.892 60.7 376.759 59.3C378.626 57.9 380.392 56.4 382.059 54.8C383.792 53.2 385.192 51.7333 386.259 50.4C386.926 49.5333 387.492 48.9333 387.959 48.6C388.492 48.2667 388.826 48.1 388.959 48.1C389.226 48.1 389.359 48.3 389.359 48.7C389.359 49.0333 388.959 49.7 388.159 50.7C387.426 51.7 386.392 52.8667 385.059 54.2C383.459 55.8 381.692 57.5333 379.759 59.4C377.826 61.2667 375.726 62.8667 373.459 64.2C371.192 65.4667 368.726 66.1 366.059 66.1ZM390.118 66.3C387.984 66.3 386.051 65.6333 384.318 64.3C382.584 62.9 381.718 61.0667 381.718 58.8C381.718 54.0667 384.618 48.6667 390.418 42.6C396.351 36.4667 401.651 33.4 406.318 33.4C407.851 33.4 409.084 33.8333 410.018 34.7C411.018 35.5 411.518 36.5 411.518 37.7C411.518 41.4333 408.551 45.1 402.618 48.7C397.351 51.9 392.918 53.5 389.318 53.5C388.784 53.5 388.318 53.4333 387.918 53.3C386.918 55.1 386.418 57 386.418 59C386.418 62.4667 388.051 64.2 391.318 64.2C394.651 64.2 398.951 61.9667 404.218 57.5C408.284 54.2333 411.751 50.7667 414.618 47.1C415.218 46.3 415.751 45.9 416.218 45.9C416.618 45.9 416.818 46.1 416.818 46.5C416.818 46.9 416.551 47.4667 416.018 48.2C414.151 50.6667 412.151 52.9333 410.018 55C407.884 57.0667 405.584 58.9667 403.118 60.7C397.984 64.4333 393.651 66.3 390.118 66.3ZM390.718 51.3C393.251 51.3 396.551 50.0333 400.618 47.5C401.951 46.5667 403.251 45.5333 404.518 44.4C405.851 43.2 406.918 42 407.718 40.8C408.584 39.6 409.018 38.5333 409.018 37.6C409.018 36.7333 408.318 36.3 406.918 36.3C404.918 36.3 402.118 37.8 398.518 40.8C396.784 42.2667 395.118 43.8667 393.518 45.6C391.918 47.3333 390.551 49.1667 389.418 51.1C389.818 51.2333 390.251 51.3 390.718 51.3ZM388.918 80C385.251 80 383.418 78.6 383.418 75.8C383.418 74 384.051 71.7 385.318 68.9C386.784 65.7 388.251 64.0667 389.718 64L390.018 64.3C387.751 67.4333 386.618 70.3667 386.618 73.1C386.618 75.8333 388.118 77.2 391.118 77.2C392.251 77.2 393.751 76.8 395.618 76C397.618 75.2667 398.618 74.9 398.618 74.9C399.351 74.9 399.718 75.2 399.718 75.8C399.718 76.6 398.118 77.5667 394.918 78.7C392.318 79.5667 390.318 80 388.918 80ZM431.201 66.2C429.001 66.2 427.035 65.5667 425.301 64.3C423.635 63.0333 422.168 61.4333 420.901 59.5C419.701 57.5667 418.668 55.6333 417.801 53.7C417.335 54.3 416.835 55.0667 416.301 56C415.835 56.9333 415.268 58.0333 414.601 59.3L411.501 65.5C409.101 64.5667 407.901 63.3 407.901 61.7C407.901 58.8333 412.268 50.8667 421.001 37.8C429.468 25.1333 435.301 17.6667 438.501 15.4C438.835 15.2 439.368 15.1 440.101 15.1C442.168 15.1 443.201 15.6333 443.201 16.7C443.201 16.9 442.735 17.6333 441.801 18.9C440.868 20.1 439.701 21.5667 438.301 23.3C436.901 25.0333 435.468 26.8 434.001 28.6C432.601 30.3333 431.368 31.8667 430.301 33.2C429.235 34.4667 428.635 35.2667 428.501 35.6C434.568 32.4667 439.401 30.9 443.001 30.9C444.401 30.9 445.668 31.3 446.801 32.1C448.001 32.9 448.935 33.8667 449.601 35C450.268 36.1333 450.535 37.2333 450.401 38.3C449.868 42.1 447.201 45.2333 442.401 47.7C438.535 49.7667 435.001 50.8 431.801 50.8C428.335 50.8 425.935 50.3667 424.601 49.5C424.201 49.4333 423.868 49.5333 423.601 49.8C423.401 50 423.368 50.3333 423.501 50.8C425.368 59.0667 428.468 63.2 432.801 63.2C434.935 63.2 437.768 61.9667 441.301 59.5C444.901 57.0333 448.701 53.4333 452.701 48.7C453.168 48.2333 453.601 48 454.001 48C454.335 48 454.501 48.2 454.501 48.6C454.501 48.9333 454.268 49.4333 453.801 50.1C451.868 52.4333 449.601 54.8667 447.001 57.4C444.468 59.8667 441.835 61.9667 439.101 63.7C436.368 65.3667 433.735 66.2 431.201 66.2ZM425.401 48.2C428.401 48.2 432.335 46.9667 437.201 44.5C442.801 41.7 445.601 38.7333 445.601 35.6C445.601 35.0667 445.301 34.5333 444.701 34C444.101 33.4667 443.468 33.2 442.801 33.2C439.201 33.2 435.001 34.6 430.201 37.4C424.935 40.6 421.735 44.1 420.601 47.9C421.335 47.9 422.268 47.9667 423.401 48.1C424.601 48.1667 425.268 48.2 425.401 48.2ZM475.557 65.2C473.757 65.2 472.49 64.7 471.757 63.7C471.023 62.6333 470.657 61.3333 470.657 59.8C470.657 55.9333 471.99 51.8 474.657 47.4L481.057 37C476.523 40.3333 472.023 44.5 467.557 49.5C466.357 50.8333 464.99 52.4 463.457 54.2C461.99 56 460.357 58.0667 458.557 60.4C456.157 63.5333 454.723 65.1 454.257 65.1C453.323 65.1 452.557 64.7 451.957 63.9C451.357 63.0333 451.057 62.2667 451.057 61.6C451.057 61.0667 451.223 60.1 451.557 58.7C451.89 57.2333 452.29 55.9667 452.757 54.9C453.223 53.7667 453.69 52.6667 454.157 51.6C454.69 50.4667 455.19 49.3667 455.657 48.3L449.657 54.6C449.523 54.7333 449.123 55.1333 448.457 55.8C447.79 56.4667 447.257 56.8 446.857 56.8C446.523 56.8 446.357 56.5667 446.357 56.1C446.357 55.9667 446.423 55.8 446.557 55.6C446.623 55.3333 446.823 55.0333 447.157 54.7C448.157 53.7 449.19 52.6333 450.257 51.5C451.323 50.3667 452.423 49.0667 453.557 47.6C454.157 46.8667 455.057 45.7667 456.257 44.3C457.457 42.7667 458.757 41.1333 460.157 39.4C461.623 37.6667 462.99 36.0667 464.257 34.6C464.59 34.1333 464.957 33.8333 465.357 33.7C465.757 33.5 466.023 33.4 466.157 33.4C467.957 33.4 468.857 34.1 468.857 35.5C468.857 35.9 468.757 36.3 468.557 36.7C462.557 44.9667 458.957 51.2667 457.757 55.6C465.49 47.8667 471.69 42.0667 476.357 38.2C481.09 34.2667 484.457 32.3 486.457 32.3C487.523 32.3 488.323 32.4667 488.857 32.8C489.457 33.1333 489.757 33.7667 489.757 34.7C489.757 35.0333 489.723 35.3 489.657 35.5C489.457 35.9667 488.09 37.8333 485.557 41.1C484.023 42.9667 482.657 44.6667 481.457 46.2C480.323 47.7333 479.39 49.0667 478.657 50.2C477.457 52.0667 476.557 53.8333 475.957 55.5C475.357 57.1 475.057 58.4667 475.057 59.6C475.057 60.0667 475.123 60.6333 475.257 61.3C475.39 61.9667 475.79 62.3 476.457 62.3C477.99 62.3 480.39 60.9667 483.657 58.3C485.19 56.9667 486.623 55.6333 487.957 54.3C489.29 52.9 490.557 51.5333 491.757 50.2C492.023 49.9333 492.457 49.4333 493.057 48.7C493.657 47.9 494.023 47.5 494.157 47.5C494.423 47.5 494.557 47.7667 494.557 48.3C494.557 48.5667 494.39 49.0333 494.057 49.7C493.79 50.3 493.49 50.7667 493.157 51.1C492.423 51.9667 491.323 53.1667 489.857 54.7C488.457 56.2333 486.857 57.8 485.057 59.4C483.323 61 481.623 62.3667 479.957 63.5C478.29 64.6333 476.823 65.2 475.557 65.2ZM497.089 65.5C495.489 65.5 493.889 64.9333 492.289 63.8C490.689 62.6667 489.789 61.3333 489.589 59.8C488.922 54.6667 492.155 48.5667 499.289 41.5C506.355 34.4333 512.722 30.9 518.389 30.9C519.922 30.9 521.122 31.2667 521.989 32C522.455 32.4667 522.789 33.1 522.989 33.9C523.255 34.7 523.455 35.1 523.589 35.1C523.855 35.1 524.089 35.0667 524.289 35C524.489 34.8667 524.722 34.8 524.989 34.8C525.789 34.8 526.489 35.1 527.089 35.7C527.689 36.3 528.022 36.8333 528.089 37.3C528.155 37.4333 526.022 40.7333 521.689 47.2C517.355 53.5333 515.389 57.8333 515.789 60.1C516.122 61.6333 516.855 62.4 517.989 62.4C521.455 62.4 527.789 56.6667 536.989 45.2C537.189 44.9333 537.389 44.8 537.589 44.8C537.922 44.8 538.089 45.0333 538.089 45.5C538.089 46.0333 537.789 46.7 537.189 47.5C528.722 58.9 522.222 64.6 517.689 64.6C517.089 64.6 516.522 64.5 515.989 64.3C513.055 63.1667 511.589 60.9667 511.589 57.7C511.589 56.5667 511.722 55.4333 511.989 54.3L505.789 60.3C503.922 62.1667 502.222 63.5 500.689 64.3C499.222 65.1 498.022 65.5 497.089 65.5ZM496.189 63.3C500.055 63.3 505.322 59.0667 511.989 50.6L522.589 36C522.055 35.0667 521.189 34.6 519.989 34.6C515.922 34.6 510.422 37.8667 503.489 44.4C496.289 51.0667 493.055 56.5667 493.789 60.9C494.122 62.5 494.922 63.3 496.189 63.3Z" fill="black"/>
<path d="M278.095 75.8C272.895 75.8 268.762 74.5667 265.695 72.1C262.628 69.7 261.095 66.2 261.095 61.6C261.095 58.2667 261.795 55.1333 263.195 52.2C264.662 49.2 266.628 46.5333 269.095 44.2C271.562 41.8667 274.362 40.0333 277.495 38.7C280.695 37.3667 284.028 36.7 287.495 36.7C291.028 36.7 293.795 37.5 295.795 39.1C297.862 40.7 298.895 42.8667 298.895 45.6C298.895 47.6 297.595 50.2 294.995 53.4C292.395 56.6 291.095 57.6667 291.095 56.6C291.095 56.3333 291.195 56.0667 291.395 55.8C293.528 52.6667 294.595 49.7333 294.595 47C294.595 44.5333 293.795 42.5667 292.195 41.1C290.662 39.6333 288.628 38.9 286.095 38.9C283.295 38.9 280.595 39.6 277.995 41C275.462 42.3333 273.195 44.1333 271.195 46.4C269.195 48.6667 267.628 51.1667 266.495 53.9C265.362 56.6333 264.795 59.3333 264.795 62C264.795 65.6667 265.962 68.4333 268.295 70.3C270.695 72.2333 273.828 73.2 277.695 73.2C281.628 73.2 285.395 72.4667 288.995 71C292.662 69.6 295.928 67.5667 298.795 64.9C302.195 61.7 305.628 57.0333 309.095 50.9L317.795 35.2C320.062 31.6 322.428 27.2667 324.895 22.2C327.362 17.0667 329.962 11.2 332.695 4.6C323.095 4.46667 313.762 5.4 304.695 7.4C295.028 9.46666 287.862 12.3333 283.195 16C281.195 17.4667 280.195 19 280.195 20.6C280.195 22 280.962 23.1667 282.495 24.1C284.095 24.9667 286.095 25.4 288.495 25.4C289.895 25.4 291.562 25.2 293.495 24.8C295.428 24.4 297.295 23.8667 299.095 23.2C300.895 22.4667 302.262 21.6667 303.195 20.8C303.862 20.2667 304.328 20 304.595 20C305.128 20 305.228 20.2667 304.895 20.8C303.495 22.4667 301.662 23.8667 299.395 25C297.195 26.1333 294.862 27 292.395 27.6C289.928 28.1333 287.628 28.4 285.495 28.4C282.228 28.4 279.662 27.7667 277.795 26.5C275.995 25.1667 275.095 23.4667 275.095 21.4C275.095 19 276.295 16.6667 278.695 14.4C283.228 10 291.328 6.73333 302.995 4.6C307.528 3.8 312.395 3.23333 317.595 2.89999C322.795 2.5 328.328 2.33333 334.195 2.4C335.662 1.13333 337.062 0.499996 338.395 0.499996C339.728 0.499996 340.228 1.2 339.895 2.6C344.095 2.86667 348.328 3.4 352.595 4.2C356.928 5 360.862 6.13333 364.395 7.6C367.995 9 370.895 10.7667 373.095 12.9C375.295 14.9667 376.395 17.4333 376.395 20.3C376.395 23.3667 375.362 26.3 373.295 29.1C371.295 31.8333 368.695 34.2667 365.495 36.4C362.362 38.5333 359.062 40.2333 355.595 41.5C352.395 42.6333 348.962 43.5333 345.295 44.2C341.695 44.8667 338.128 45.2 334.595 45.2C331.928 45.2 329.362 45 326.895 44.6C324.495 44.2 322.295 43.5667 320.295 42.7C316.228 48.6333 312.828 53.4667 310.095 57.2C307.428 60.9333 305.362 63.5333 303.895 65C296.695 72.2 288.095 75.8 278.095 75.8ZM332.095 42.8C334.562 42.8 336.995 42.5667 339.395 42.1C341.862 41.5667 344.495 40.8667 347.295 40C350.095 39.0667 352.928 37.9 355.795 36.5C358.662 35.0333 361.295 33.4 363.695 31.6C366.095 29.7333 368.028 27.7667 369.495 25.7C370.962 23.5667 371.695 21.4333 371.695 19.3C371.695 16.9 370.695 14.8333 368.695 13.1C366.695 11.3 364.062 9.83333 360.795 8.7C357.528 7.56666 353.995 6.7 350.195 6.1C346.395 5.43333 342.728 5 339.195 4.79999L335.995 14.8C334.862 17.6667 333.262 21 331.195 24.8C329.128 28.6 326.595 32.8667 323.595 37.6L321.395 41C321.862 41.2667 322.362 41.5 322.895 41.7C323.495 41.8333 324.128 41.9667 324.795 42.1C326.062 42.3667 327.295 42.5667 328.495 42.7C329.695 42.7667 330.895 42.8 332.095 42.8Z" fill="#A2238E"/>
</svg>
